<?xml version="1.0" encoding="utf-8"?>
<svg version="1.1" id="Capa_1" xmlns="http://www.w3.org/2000/svg" xmlns:xlink="http://www.w3.org/1999/xlink" x="0px" y="0px"
	 viewBox="0 0 258 276.3" style="enable-background:new 0 0 258 276.3;" xml:space="preserve">
<style type="text/css">
	.st0{fill:none;stroke:#5EEAD4;stroke-width:30;stroke-miterlimit:10;}
	.st1{fill:#5EEAD4;}
</style>
<g>
	<path class="st1" d="M183.1,267.4c14.2-17.4,25-36.6,31.6-56.7c6.6-20.1,9.2-41,7.7-61.4c-0.7-10.2-2.5-20.2-5.1-29.9
		c-2.7-9.7-6.2-19-10.7-27.9c-4.4-8.9-9.7-17.2-15.8-25c-6.1-7.7-12.9-14.9-20.2-21.3l25,2l-2.2,1.5l-2.4,1.6l-4.7,3.3
		c-3.2,2.2-6.3,4.5-9.4,6.9c-6.3,4.6-12.4,9.4-18.4,14.3c-6,4.9-11.8,9.9-17.3,15c-5.5,5.2-10.8,10.4-15.4,15.9
		c-4.7,5.4-8.8,11.1-11.7,16.6c-3,5.5-4.5,10.8-4.4,14.6c0,1.9,0.4,3.8,1.1,5.6c0.7,1.8,1.9,3.5,3.3,5c2.9,2.9,6.8,4.8,11,5
		c4.2,0.2,8.5-1.3,11.8-4.1c3.4-2.8,5.6-6.9,6.1-11.3c0.6-4.4-0.7-10.4-3.3-16.4c-2.7-6.1-6.5-12.3-11-18.2
		c-4.5-6-9.5-11.7-14.9-17.4c-5.3-5.6-11-11.1-16.9-16.4c-5.9-5.3-12-10.4-18.2-15.4c-3.1-2.5-6.3-4.9-9.4-7.3l-4.8-3.5
		C63,41.2,61.3,40,59.8,39l13.3-1.1c-16,13.5-29.3,30.4-38.6,49.5c-9.3,19.1-14.5,40.3-15.2,61.8c-0.8,21.5,3,43.4,11.2,63.6
		c8.2,20.3,20.6,39,36.6,54.5c0.8,0.8,0.8,2,0,2.8c-0.7,0.8-1.9,0.8-2.7,0.1c-17.5-14.6-32.1-32.9-42.3-53.7
		C12,195.8,6.3,172.7,5.5,149.3C4.8,125.9,9,102.1,18,80.1c4.5-11,10.2-21.6,17-31.4c6.8-9.8,14.7-19,23.4-27.2l5.9-5.6l7.4,4.5
		c2,1.2,3.7,2.3,5.5,3.4l5.3,3.5c3.5,2.3,7,4.7,10.4,7.1c6.9,4.8,13.6,9.9,20.2,15.2c13.2,10.6,25.9,22,37.2,35.7
		c5.6,6.9,11,14.3,15.3,23c2.2,4.3,4,9.1,5.4,14.2c0.4,1.3,0.6,2.6,0.9,3.9c0.2,1.4,0.5,2.7,0.6,4.1c0.4,2.8,0.4,5.7,0.2,8.7
		c-0.4,5.9-1.9,11.8-4.4,17.3c-2.5,5.4-6.1,10.3-10.4,14.5c-4.3,4.1-9.5,7.5-15,9.8c-5.6,2.3-11.7,3.5-17.7,3.7
		c-6.1,0.1-12.2-0.9-17.9-3.1c-5.7-2.1-11.1-5.4-15.6-9.4c-4.6-4.1-8.4-9-11.3-14.6c-2.9-5.5-4.7-11.6-5.3-17.9
		c-0.3-3.1-0.4-6.2-0.1-9.1c0.1-1.5,0.3-2.9,0.5-4.4c0.2-1.4,0.4-2.8,0.8-4.2c1.2-5.5,2.9-10.5,4.9-15.1c4.1-9.3,9.2-17.3,14.6-24.7
		C106.6,67.2,119,54.8,132,43.4c6.5-5.7,13.2-11.1,20-16.3c3.4-2.6,6.9-5.1,10.4-7.6c1.8-1.2,3.5-2.4,5.3-3.6l2.7-1.8l2.9-1.9
		l13.3-8.6l11.7,10.6c9.4,8.5,17.8,18.1,25,28.5c7.2,10.4,13.2,21.6,18,33.3c9.4,23.4,13.4,48.7,12,73.2
		c-1.5,24.6-8.4,48.7-20.2,69.6c-11.7,20.9-28,38.8-47.3,51.5c-0.9,0.6-2.2,0.4-2.8-0.6C182.5,269,182.6,268.1,183.1,267.4
		L183.1,267.4z"/>
</g>
</svg>
